<?xml version="1.0" encoding="UTF-8"?>
<svg width="24px" height="24px" viewBox="0 0 24 24" version="1.1" xmlns="http://www.w3.org/2000/svg" xmlns:xlink="http://www.w3.org/1999/xlink">
    <!-- Generator: Sketch 53.2 (72643) - https://sketchapp.com -->
    <title>icons / check 2 / 24</title>
    <desc>Created with Sketch.</desc>
    <g id="icons-/-check-2-/-24" stroke="none" stroke-width="1" fill="none" fill-rule="evenodd">
        <g id="check-Pink-3" transform="translate(4.000000, 4.000000)" fill="#FB7E7E" fill-rule="nonzero">
            <path d="M0.708571429,13.6336134 C0.833004071,13.3601492 0.888141409,13.0571255 0.868571429,12.7542857 C0.92952381,11.6813445 0.975238095,10.6003361 1.01333333,9.52739496 C1.01333333,9.23697479 0.944761905,8.94655462 0.96,8.65613445 C0.884692792,7.99810183 1.13527125,7.34547964 1.62285714,6.9297479 C1.7752381,6.83294118 1.72190476,6.63932773 1.84380952,6.48605042 C1.97333333,6.63932773 2.12571429,6.56672269 2.27809524,6.57478992 C2.55238095,6.57478992 2.68190476,6.95394958 2.84952381,7.19596639 C2.94400123,7.39260288 2.98364221,7.61365964 2.96380952,7.83327731 C3.04771935,8.46478961 3.04771935,9.10563056 2.96380952,9.73714286 C2.87459082,10.1743897 2.85655375,10.6245586 2.91047619,11.0682353 C2.91047619,11.4877311 3.10857143,11.6168067 3.45142857,11.4393277 C4.12154376,11.1465486 4.66474555,10.6001515 4.9752381,9.90655462 C5.01558843,9.79702859 5.09906027,9.7115927 5.20380952,9.67260504 C5.34095238,9.60806723 5.49333333,9.55159664 5.46285714,9.33378151 C5.46405404,9.28939607 5.4915209,9.25061933 5.53142857,9.23697479 C6.04190476,9.15630252 6.17904762,8.63193277 6.46095238,8.3092437 C7.06285714,7.63159664 7.78666667,7.11529412 8.35809524,6.3892437 C8.75833084,5.723411 9.30463714,5.16987803 9.95047619,4.77579832 C10.0458887,4.74524976 10.1068885,4.64666813 10.0952381,4.54184874 C10.0952381,4.35630252 10.0952381,4.36436975 10.3009524,4.34823529 C10.3709827,4.34211507 10.4336753,4.29987299 10.4685714,4.23529412 C10.712381,3.58184874 11.4361905,3.37210084 11.687619,2.73478992 C11.687619,2.73478992 11.687619,2.6702521 11.7409524,2.66218487 C12.1066667,2.56537815 12.0838095,2.5492437 12.327619,2.22655462 C12.5223502,1.99242679 12.7451968,1.78630496 12.9904762,1.61344538 C13.3561905,1.33109244 13.432381,0.806722689 13.8361905,0.59697479 C13.9766418,0.503199678 14.1452176,0.468652843 14.3085714,0.500168067 C14.5980952,0.564705882 14.5980952,0.564705882 14.7504762,0.282352941 C14.9333333,0.282352941 14.88,0.709915966 15.1619048,0.524369748 C15.1619048,0.435630252 14.9485714,0.306554622 15.1619048,0.193613445 C15.3752381,0.0806722689 15.6114286,-0.0242016807 15.68,0.10487395 C15.8095238,0.36302521 15.8933333,0.00806722689 15.9695238,0.10487395 L15.9695238,0.371092437 C15.8004382,0.404618495 15.6659792,0.540659313 15.6266667,0.717983193 C15.4911177,1.10988869 15.2869064,1.47117395 15.0247619,1.78285714 C14.8647619,2.06521008 14.56,2.29915966 14.3619048,2.58957983 C14.3619048,2.58957983 14.2857143,2.66218487 14.2628571,2.65411765 C13.8361905,2.50890756 13.8514286,3.0010084 13.6457143,3.12201681 C13.1657143,3.39630252 12.9828571,4.03361345 12.4266667,4.18689076 C12.3504762,4.18689076 12.2590476,4.18689076 12.2438095,4.34016807 C12.1904762,4.96134454 11.6342857,5.14689076 11.2838095,5.46957983 C10.9333333,5.79226891 10.88,5.98588235 10.6438095,6.21983193 C10.3957599,6.49956926 10.1078185,6.73639498 9.79047619,6.92168067 C9.56190476,7.03462185 9.6,7.40571429 9.34857143,7.55092437 C9.24190476,7.61546218 9.21142857,7.78487395 9.02095238,7.75260504 C8.90313163,7.75260504 8.80761905,7.85373602 8.80761905,7.97848739 C8.89142857,8.40605042 8.60190476,8.57546218 8.34285714,8.74487395 C7.90857143,9.03529412 7.72571429,9.55159664 7.40571429,9.92268908 C7.08571429,10.2937815 6.87238095,10.8020168 6.36952381,10.9714286 C6.33142857,10.9714286 6.27047619,11.0198319 6.27047619,11.0359664 C6.27047619,11.4635294 5.92761905,11.6490756 5.79047619,11.9636975 C5.67487197,12.2119893 5.50826209,12.429746 5.30285714,12.6010084 C5.00801105,12.9722688 4.73571763,13.3629702 4.48761905,13.7707563 C4.13602573,14.264174 3.74609696,14.7256122 3.32190476,15.1502521 L2.39238095,15.9569748 L1.79047619,15.9569748 C1.72660175,15.7792954 1.59738343,15.6366538 1.43238095,15.5616807 C1.13588937,15.4482614 0.935986842,15.1532181 0.92952381,14.8194958 C0.912198713,14.4409476 0.837599035,14.0677979 0.708571429,13.7142857 L0.708571429,13.6336134 Z" id="Path"></path>
        </g>
    </g>
</svg>