<svg xmlns="http://www.w3.org/2000/svg" width="270.976" height="62.664" viewBox="0 0 270.976 62.664">
    <path fill="#fff" d="M-213.973-32.891h-21.451v8.065h4.56v22.275h-6.808v8.065h16.827v-30.34h4.56c5.395 0 7.322 2.368 7.322 9.217V5.514h10.533v-22.083c0-11.97-4.496-16.322-15.543-16.322zm37.3 48.646a3.053 3.053 0 0 0 3.083-3.136 3.038 3.038 0 0 0-3.083-3.072 3.054 3.054 0 0 0-3.147 3.072 3.068 3.068 0 0 0 3.152 3.136zm8.734 0a3.068 3.068 0 0 0 3.147-3.136 3.054 3.054 0 0 0-3.147-3.072 3.038 3.038 0 0 0-3.083 3.072 3.053 3.053 0 0 0 3.088 3.136zm5.927-48.646h-31.02v8.065h16.377v30.34h10.533v-30.34h4.11zm15.465 48.646a3.053 3.053 0 0 0 3.083-3.136 3.038 3.038 0 0 0-3.083-3.072 3.054 3.054 0 0 0-3.147 3.072 3.068 3.068 0 0 0 3.152 3.136zm8.734 0a3.068 3.068 0 0 0 3.147-3.136 3.054 3.054 0 0 0-3.147-3.072 3.038 3.038 0 0 0-3.083 3.072 3.053 3.053 0 0 0 3.089 3.136zm-4.367 7.617a3.106 3.106 0 0 0 3.147-3.136 3.093 3.093 0 0 0-3.147-3.072 3.093 3.093 0 0 0-3.147 3.072 3.106 3.106 0 0 0 3.152 3.136zm-6.74-17.858h11.047l13.1-38.4H-145.7v-6.4h-10.019v14.466h17.469zm40.365 4.545v4.673h14.772v-4.674zm25.517-24.707v-18.243h-18.812v8.065h8.35v10.177c0 9.345-2.7 12.1-10.019 12.1h-1.734l-3.4-30.34h-10.469l4.431 38.4h11.175c13.097.003 20.483-4.734 20.483-20.16zm19.56 4.548v-22.791h-10.533V-10.1zm58.238 0v-22.791h-10.533V-10.1zm29.578 26.367A3.3 3.3 0 1 0 21.063 13a3.284 3.284 0 0 0 3.275 3.267zM33.3-32.891H2.284v8.065h16.378v30.34h10.532v-30.34H33.3z" transform="translate(237.671 39.292)"/>
    <path fill="#b30101" d="M5.094 5.853A1.993 1.993 0 0 1 3 3.927 1.993 1.993 0 0 1 5.094 2h20.943a1.993 1.993 0 0 1 2.094 1.927 1.993 1.993 0 0 1-2.094 1.927zm-.012 5.78A1.993 1.993 0 0 1 3 9.707 1.993 1.993 0 0 1 5.082 7.78h22.9a1.993 1.993 0 0 1 2.082 1.927 1.993 1.993 0 0 1-2.082 1.927zm13.168 5.78a1.85 1.85 0 0 1-1.719-1.927 1.85 1.85 0 0 1 1.719-1.926h12.028A1.85 1.85 0 0 1 32 15.486a1.85 1.85 0 0 1-1.719 1.927H18.25zm1.933 5.78a1.939 1.939 0 0 1 0-3.853h12.029a1.939 1.939 0 0 1 0 3.853H20.184zm-15.25 5.78a1.927 1.927 0 1 1 0-3.853h29a1.927 1.927 0 1 1 0 3.853zm0 5.78a1.927 1.927 0 1 1 0-3.853h11.6a1.927 1.927 0 1 1 0 3.853zm0 5.78a1.927 1.927 0 1 1 0-3.853h11.6a1.927 1.927 0 1 1 0 3.853zm21.264 0a1.927 1.927 0 1 1 0-3.853H37.8a1.927 1.927 0 1 1 0 3.853zm-1.933-5.78a1.927 1.927 0 1 1 0-3.853h11.6a1.927 1.927 0 1 1 0 3.853z" transform="translate(179.588 4.483)"/>
</svg>
