<?xml version="1.0" standalone="no"?>
<!DOCTYPE svg PUBLIC "-//W3C//DTD SVG 20010904//EN"
 "http://www.w3.org/TR/2001/REC-SVG-20010904/DTD/svg10.dtd">
<svg version="1.0" xmlns="http://www.w3.org/2000/svg"
 width="938.000000pt" height="247.000000pt" viewBox="0 0 938.000000 247.000000"
 preserveAspectRatio="xMidYMid meet">

<g transform="translate(0.000000,247.000000) scale(0.100000,-0.100000)"
fill="#000000" stroke="none">
<path d="M5996 2194 c-9 -8 -16 -24 -16 -34 0 -10 7 -26 16 -34 14 -14 68 -16
448 -16 323 0 435 3 444 12 19 19 15 66 -7 78 -13 6 -171 10 -445 10 -373 0
-426 -2 -440 -16z"/>
<path d="M5997 2042 c-21 -23 -22 -46 -1 -66 14 -14 71 -16 478 -16 346 0 465
3 474 12 19 19 15 66 -7 78 -13 6 -180 10 -474 10 -427 0 -455 -1 -470 -18z"/>
<path d="M6002 1894 c-24 -17 -29 -53 -10 -72 17 -17 999 -17 1016 0 19 19 15
66 -7 78 -13 6 -187 10 -498 10 -417 0 -481 -2 -501 -16z"/>
<path d="M6460 1740 c-24 -24 -24 -29 -4 -58 15 -22 17 -22 308 -22 308 0 316
1 316 46 0 50 -22 54 -322 54 -265 0 -279 -1 -298 -20z"/>
<path d="M6533 1600 c-18 -7 -23 -17 -23 -44 0 -22 6 -36 16 -40 9 -3 145 -6
304 -6 309 0 316 1 308 52 -6 43 -35 48 -318 47 -146 0 -275 -4 -287 -9z"/>
<path d="M6570 1430 c-15 -28 -3 -59 27 -71 13 -5 142 -9 286 -9 280 0 309 5
315 48 8 51 2 52 -319 52 -290 0 -299 -1 -309 -20z"/>
<path d="M5992 1288 c-19 -19 -14 -55 10 -72 20 -14 95 -16 618 -16 523 0 598
2 618 16 24 17 29 53 10 72 -17 17 -1239 17 -1256 0z"/>
<path d="M5992 1138 c-19 -19 -14 -55 10 -72 19 -14 65 -16 300 -16 265 0 279
1 298 20 24 24 24 29 4 58 -15 22 -17 22 -308 22 -214 0 -295 -3 -304 -12z"/>
<path d="M6696 1128 c-20 -29 -20 -34 4 -58 19 -19 33 -20 298 -20 300 0 322
4 322 54 0 45 -8 46 -316 46 -291 0 -293 0 -308 -22z"/>
<path d="M5996 984 c-21 -21 -20 -47 2 -67 16 -15 52 -17 300 -17 269 0 283 1
302 20 24 24 24 29 4 58 -15 22 -17 22 -304 22 -249 0 -291 -2 -304 -16z"/>
<path d="M6757 982 c-22 -24 -21 -45 1 -65 16 -15 52 -17 305 -17 308 0 317 1
317 54 0 45 -8 46 -315 46 -270 0 -293 -1 -308 -18z"/>
<path d="M5996 834 c-9 -8 -16 -24 -16 -34 0 -10 7 -26 16 -34 13 -14 55 -16
304 -16 l290 0 16 25 c15 23 15 27 0 50 l-16 25 -290 0 c-249 0 -291 -2 -304
-16z"/>
<path d="M6816 828 c-21 -29 -20 -41 2 -61 16 -15 52 -17 305 -17 246 0 288 2
301 16 9 8 16 24 16 34 0 10 -7 26 -16 34 -13 14 -55 16 -304 16 -287 0 -289
0 -304 -22z"/>
</g>
</svg>
